<mxfile host="app.diagrams.net" modified="2023-12-25T13:25:53.643Z" agent="Mozilla/5.0 (Macintosh; Intel Mac OS X 10_15_7) AppleWebKit/605.1.15 (KHTML, like Gecko) Version/16.5 Safari/605.1.15" version="22.1.11" etag="L27G_BsRrhHOjhBA4n67" type="github">
  <diagram name="Page-1" id="Y_bxia6E-b9aS1y8KWXX">
    <mxGraphModel>
      <root>
        <mxCell id="0" />
        <mxCell id="1" parent="0" />
      </root>
    </mxGraphModel>
  </diagram>
</mxfile>
